<?xml version="1.0" encoding="utf-8" ?>
<svg baseProfile="full" fill="white" fill-opacity="0" height="100%" version="1.1" width="100%" xmlns="http://www.w3.org/2000/svg" xmlns:ev="http://www.w3.org/2001/xml-events" xmlns:xlink="http://www.w3.org/1999/xlink"><defs /><circle cx="400" cy="400" fill="white" fill-opacity="0" id="boundary_circle" r="250" stroke="black" stroke-width="1" /><g id="rotated_triangle" stroke="red" stroke-width="4"><line x1="400" x2="523.4707628942313" y1="400" y2="328.7141218059671" /><path d="m 523.4707628942313 328.7141218059671 A 223.6067977499789 223.6067977499789 0 0,0 511.80339887498945 400.0" /><line x1="400" x2="511.80339887498945" y1="400" y2="400.0" /><line x1="400.0" x2="523.4707628942313" y1="400.0" y2="328.7141218059671" /><path d="m 523.4707628942313 328.7141218059671 A 223.60679774997908 223.60679774997908 0 0,1 455.90169943749476 303.1754163448146" /><line x1="400.0" x2="455.90169943749476" y1="400.0" y2="303.1754163448146" /><line x1="400.0" x2="400.0000000000001" y1="400.0" y2="257.4282436119342" /><path d="m 400.0000000000001 257.4282436119342 A 223.60679774997894 223.60679774997894 0 0,0 455.90169943749476 303.1754163448146" /><line x1="400.0" x2="455.90169943749476" y1="400.0" y2="303.1754163448146" /><line x1="400.0" x2="399.9999999999999" y1="400.0" y2="257.4282436119342" /><path d="m 399.9999999999999 257.4282436119342 A 223.60679774997894 223.60679774997894 0 0,1 344.09830056250524 303.1754163448146" /><line x1="400.0" x2="344.09830056250524" y1="400.0" y2="303.1754163448146" /><line x1="400.0" x2="276.5292371057687" y1="400.0" y2="328.71412180596707" /><path d="m 276.5292371057687 328.71412180596707 A 223.60679774997905 223.60679774997905 0 0,0 344.09830056250524 303.1754163448146" /><line x1="400.0" x2="344.09830056250524" y1="400.0" y2="303.1754163448146" /><line x1="400.0" x2="276.52923710576874" y1="400.0" y2="328.7141218059671" /><path d="m 276.52923710576874 328.7141218059671 A 223.6067977499792 223.6067977499792 0 0,1 288.1966011250106 400.0" /><line x1="400.0" x2="288.1966011250106" y1="400.0" y2="400.0" /><line x1="400.0" x2="276.52923710576874" y1="400.0" y2="471.2858781940328" /><path d="m 276.52923710576874 471.2858781940328 A 223.60679774997922 223.60679774997922 0 0,0 288.1966011250106 400.0" /><line x1="400.0" x2="288.1966011250106" y1="400.0" y2="400.0" /><line x1="400.0" x2="276.5292371057687" y1="400.0" y2="471.2858781940329" /><path d="m 276.5292371057687 471.2858781940329 A 223.60679774997922 223.60679774997922 0 0,1 344.09830056250524 496.82458365518534" /><line x1="400.0" x2="344.09830056250524" y1="400.0" y2="496.82458365518534" /><line x1="400.0" x2="399.9999999999999" y1="400.0" y2="542.5717563880658" /><path d="m 399.9999999999999 542.5717563880658 A 223.6067977499791 223.6067977499791 0 0,0 344.09830056250524 496.82458365518534" /><line x1="400.0" x2="344.09830056250524" y1="400.0" y2="496.82458365518534" /><line x1="400.0" x2="400.0000000000001" y1="400.0" y2="542.5717563880658" /><path d="m 400.0000000000001 542.5717563880658 A 223.6067977499791 223.6067977499791 0 0,1 455.90169943749476 496.82458365518534" /><line x1="400.0" x2="455.90169943749476" y1="400.0" y2="496.82458365518534" /><line x1="400.0" x2="523.4707628942313" y1="400.0" y2="471.2858781940329" /><path d="m 523.4707628942313 471.2858781940329 A 223.60679774997922 223.60679774997922 0 0,0 455.90169943749476 496.82458365518534" /><line x1="400.0" x2="455.90169943749476" y1="400.0" y2="496.82458365518534" /><line x1="400.0" x2="523.4707628942313" y1="400.0" y2="471.2858781940329" /><path d="m 523.4707628942313 471.2858781940329 A 223.6067977499791 223.6067977499791 0 0,1 511.80339887498945 400.0" /><line x1="400.0" x2="511.80339887498945" y1="400.0" y2="400.0" /></g><circle cx="735.4101966249684" cy="400.0000000000001" r="223.6067977499789" stroke="green" stroke-width="1" /><circle cx="567.7050983124843" cy="109.52624903444365" r="223.60679774997908" stroke="green" stroke-width="1" /><circle cx="567.7050983124844" cy="109.52624903444382" r="223.60679774997894" stroke="green" stroke-width="1" /><circle cx="232.2949016875156" cy="109.52624903444382" r="223.60679774997894" stroke="green" stroke-width="1" /><circle cx="232.29490168751585" cy="109.52624903444371" r="223.60679774997905" stroke="green" stroke-width="1" /><circle cx="64.58980337503135" cy="399.9999999999999" r="223.6067977499792" stroke="green" stroke-width="1" /><circle cx="64.58980337503135" cy="399.9999999999998" r="223.60679774997922" stroke="green" stroke-width="1" /><circle cx="232.29490168751565" cy="690.4737509655563" r="223.60679774997922" stroke="green" stroke-width="1" /><circle cx="232.29490168751553" cy="690.4737509655563" r="223.6067977499791" stroke="green" stroke-width="1" /><circle cx="567.7050983124844" cy="690.4737509655563" r="223.6067977499791" stroke="green" stroke-width="1" /><circle cx="567.7050983124844" cy="690.4737509655564" r="223.60679774997922" stroke="green" stroke-width="1" /><circle cx="735.4101966249685" cy="400.0" r="223.6067977499791" stroke="green" stroke-width="1" /></svg>