<?xml version="1.0" encoding="utf-8" standalone="no"?>
<!DOCTYPE svg PUBLIC "-//W3C//DTD SVG 1.1//EN"
  "http://www.w3.org/Graphics/SVG/1.1/DTD/svg11.dtd">
<!-- Created with matplotlib (https://matplotlib.org/) -->
<svg height="576pt" version="1.1" viewBox="0 0 576 576" width="576pt" xmlns="http://www.w3.org/2000/svg" xmlns:xlink="http://www.w3.org/1999/xlink">
 <defs>
  <style type="text/css">
*{stroke-linecap:butt;stroke-linejoin:round;}
  </style>
 </defs>
 <g id="figure_1">
  <g id="patch_1">
   <path d="M 0 576 
L 576 576 
L 576 0 
L 0 0 
z
" style="fill:#ffffff;"/>
  </g>
  <g id="axes_1">
   <g id="patch_2">
    <path d="M 72 512.64 
L 518.4 512.64 
L 518.4 69.12 
L 72 69.12 
z
" style="fill:#ffffff;"/>
   </g>
   <g id="matplotlib.axis_1">
    <g id="xtick_1">
     <g id="line2d_1">
      <defs>
       <path d="M 0 0 
L 0 3.5 
" id="m6387cbe100" style="stroke:#000000;stroke-width:0.8;"/>
      </defs>
      <g>
       <use style="stroke:#000000;stroke-width:0.8;" x="72" xlink:href="#m6387cbe100" y="512.64"/>
      </g>
     </g>
     <g id="text_1">
      <!-- 0 -->
      <defs>
       <path d="M 31.78125 66.40625 
Q 24.171875 66.40625 20.328125 58.90625 
Q 16.5 51.421875 16.5 36.375 
Q 16.5 21.390625 20.328125 13.890625 
Q 24.171875 6.390625 31.78125 6.390625 
Q 39.453125 6.390625 43.28125 13.890625 
Q 47.125 21.390625 47.125 36.375 
Q 47.125 51.421875 43.28125 58.90625 
Q 39.453125 66.40625 31.78125 66.40625 
z
M 31.78125 74.21875 
Q 44.046875 74.21875 50.515625 64.515625 
Q 56.984375 54.828125 56.984375 36.375 
Q 56.984375 17.96875 50.515625 8.265625 
Q 44.046875 -1.421875 31.78125 -1.421875 
Q 19.53125 -1.421875 13.0625 8.265625 
Q 6.59375 17.96875 6.59375 36.375 
Q 6.59375 54.828125 13.0625 64.515625 
Q 19.53125 74.21875 31.78125 74.21875 
z
" id="DejaVuSans-48"/>
      </defs>
      <g transform="translate(68.81875 527.238438)scale(0.1 -0.1)">
       <use xlink:href="#DejaVuSans-48"/>
      </g>
     </g>
    </g>
    <g id="xtick_2">
     <g id="line2d_2">
      <g>
       <use style="stroke:#000000;stroke-width:0.8;" x="146.4" xlink:href="#m6387cbe100" y="512.64"/>
      </g>
     </g>
     <g id="text_2">
      <!-- 1 -->
      <defs>
       <path d="M 12.40625 8.296875 
L 28.515625 8.296875 
L 28.515625 63.921875 
L 10.984375 60.40625 
L 10.984375 69.390625 
L 28.421875 72.90625 
L 38.28125 72.90625 
L 38.28125 8.296875 
L 54.390625 8.296875 
L 54.390625 0 
L 12.40625 0 
z
" id="DejaVuSans-49"/>
      </defs>
      <g transform="translate(143.21875 527.238438)scale(0.1 -0.1)">
       <use xlink:href="#DejaVuSans-49"/>
      </g>
     </g>
    </g>
    <g id="xtick_3">
     <g id="line2d_3">
      <g>
       <use style="stroke:#000000;stroke-width:0.8;" x="220.8" xlink:href="#m6387cbe100" y="512.64"/>
      </g>
     </g>
     <g id="text_3">
      <!-- 2 -->
      <defs>
       <path d="M 19.1875 8.296875 
L 53.609375 8.296875 
L 53.609375 0 
L 7.328125 0 
L 7.328125 8.296875 
Q 12.9375 14.109375 22.625 23.890625 
Q 32.328125 33.6875 34.8125 36.53125 
Q 39.546875 41.84375 41.421875 45.53125 
Q 43.3125 49.21875 43.3125 52.78125 
Q 43.3125 58.59375 39.234375 62.25 
Q 35.15625 65.921875 28.609375 65.921875 
Q 23.96875 65.921875 18.8125 64.3125 
Q 13.671875 62.703125 7.8125 59.421875 
L 7.8125 69.390625 
Q 13.765625 71.78125 18.9375 73 
Q 24.125 74.21875 28.421875 74.21875 
Q 39.75 74.21875 46.484375 68.546875 
Q 53.21875 62.890625 53.21875 53.421875 
Q 53.21875 48.921875 51.53125 44.890625 
Q 49.859375 40.875 45.40625 35.40625 
Q 44.1875 33.984375 37.640625 27.21875 
Q 31.109375 20.453125 19.1875 8.296875 
z
" id="DejaVuSans-50"/>
      </defs>
      <g transform="translate(217.61875 527.238438)scale(0.1 -0.1)">
       <use xlink:href="#DejaVuSans-50"/>
      </g>
     </g>
    </g>
    <g id="xtick_4">
     <g id="line2d_4">
      <g>
       <use style="stroke:#000000;stroke-width:0.8;" x="295.2" xlink:href="#m6387cbe100" y="512.64"/>
      </g>
     </g>
     <g id="text_4">
      <!-- 3 -->
      <defs>
       <path d="M 40.578125 39.3125 
Q 47.65625 37.796875 51.625 33 
Q 55.609375 28.21875 55.609375 21.1875 
Q 55.609375 10.40625 48.1875 4.484375 
Q 40.765625 -1.421875 27.09375 -1.421875 
Q 22.515625 -1.421875 17.65625 -0.515625 
Q 12.796875 0.390625 7.625 2.203125 
L 7.625 11.71875 
Q 11.71875 9.328125 16.59375 8.109375 
Q 21.484375 6.890625 26.8125 6.890625 
Q 36.078125 6.890625 40.9375 10.546875 
Q 45.796875 14.203125 45.796875 21.1875 
Q 45.796875 27.640625 41.28125 31.265625 
Q 36.765625 34.90625 28.71875 34.90625 
L 20.21875 34.90625 
L 20.21875 43.015625 
L 29.109375 43.015625 
Q 36.375 43.015625 40.234375 45.921875 
Q 44.09375 48.828125 44.09375 54.296875 
Q 44.09375 59.90625 40.109375 62.90625 
Q 36.140625 65.921875 28.71875 65.921875 
Q 24.65625 65.921875 20.015625 65.03125 
Q 15.375 64.15625 9.8125 62.3125 
L 9.8125 71.09375 
Q 15.4375 72.65625 20.34375 73.4375 
Q 25.25 74.21875 29.59375 74.21875 
Q 40.828125 74.21875 47.359375 69.109375 
Q 53.90625 64.015625 53.90625 55.328125 
Q 53.90625 49.265625 50.4375 45.09375 
Q 46.96875 40.921875 40.578125 39.3125 
z
" id="DejaVuSans-51"/>
      </defs>
      <g transform="translate(292.01875 527.238438)scale(0.1 -0.1)">
       <use xlink:href="#DejaVuSans-51"/>
      </g>
     </g>
    </g>
    <g id="xtick_5">
     <g id="line2d_5">
      <g>
       <use style="stroke:#000000;stroke-width:0.8;" x="369.6" xlink:href="#m6387cbe100" y="512.64"/>
      </g>
     </g>
     <g id="text_5">
      <!-- 4 -->
      <defs>
       <path d="M 37.796875 64.3125 
L 12.890625 25.390625 
L 37.796875 25.390625 
z
M 35.203125 72.90625 
L 47.609375 72.90625 
L 47.609375 25.390625 
L 58.015625 25.390625 
L 58.015625 17.1875 
L 47.609375 17.1875 
L 47.609375 0 
L 37.796875 0 
L 37.796875 17.1875 
L 4.890625 17.1875 
L 4.890625 26.703125 
z
" id="DejaVuSans-52"/>
      </defs>
      <g transform="translate(366.41875 527.238438)scale(0.1 -0.1)">
       <use xlink:href="#DejaVuSans-52"/>
      </g>
     </g>
    </g>
    <g id="xtick_6">
     <g id="line2d_6">
      <g>
       <use style="stroke:#000000;stroke-width:0.8;" x="444" xlink:href="#m6387cbe100" y="512.64"/>
      </g>
     </g>
     <g id="text_6">
      <!-- 5 -->
      <defs>
       <path d="M 10.796875 72.90625 
L 49.515625 72.90625 
L 49.515625 64.59375 
L 19.828125 64.59375 
L 19.828125 46.734375 
Q 21.96875 47.46875 24.109375 47.828125 
Q 26.265625 48.1875 28.421875 48.1875 
Q 40.625 48.1875 47.75 41.5 
Q 54.890625 34.8125 54.890625 23.390625 
Q 54.890625 11.625 47.5625 5.09375 
Q 40.234375 -1.421875 26.90625 -1.421875 
Q 22.3125 -1.421875 17.546875 -0.640625 
Q 12.796875 0.140625 7.71875 1.703125 
L 7.71875 11.625 
Q 12.109375 9.234375 16.796875 8.0625 
Q 21.484375 6.890625 26.703125 6.890625 
Q 35.15625 6.890625 40.078125 11.328125 
Q 45.015625 15.765625 45.015625 23.390625 
Q 45.015625 31 40.078125 35.4375 
Q 35.15625 39.890625 26.703125 39.890625 
Q 22.75 39.890625 18.8125 39.015625 
Q 14.890625 38.140625 10.796875 36.28125 
z
" id="DejaVuSans-53"/>
      </defs>
      <g transform="translate(440.81875 527.238438)scale(0.1 -0.1)">
       <use xlink:href="#DejaVuSans-53"/>
      </g>
     </g>
    </g>
    <g id="xtick_7">
     <g id="line2d_7">
      <g>
       <use style="stroke:#000000;stroke-width:0.8;" x="518.4" xlink:href="#m6387cbe100" y="512.64"/>
      </g>
     </g>
     <g id="text_7">
      <!-- 6 -->
      <defs>
       <path d="M 33.015625 40.375 
Q 26.375 40.375 22.484375 35.828125 
Q 18.609375 31.296875 18.609375 23.390625 
Q 18.609375 15.53125 22.484375 10.953125 
Q 26.375 6.390625 33.015625 6.390625 
Q 39.65625 6.390625 43.53125 10.953125 
Q 47.40625 15.53125 47.40625 23.390625 
Q 47.40625 31.296875 43.53125 35.828125 
Q 39.65625 40.375 33.015625 40.375 
z
M 52.59375 71.296875 
L 52.59375 62.3125 
Q 48.875 64.0625 45.09375 64.984375 
Q 41.3125 65.921875 37.59375 65.921875 
Q 27.828125 65.921875 22.671875 59.328125 
Q 17.53125 52.734375 16.796875 39.40625 
Q 19.671875 43.65625 24.015625 45.921875 
Q 28.375 48.1875 33.59375 48.1875 
Q 44.578125 48.1875 50.953125 41.515625 
Q 57.328125 34.859375 57.328125 23.390625 
Q 57.328125 12.15625 50.6875 5.359375 
Q 44.046875 -1.421875 33.015625 -1.421875 
Q 20.359375 -1.421875 13.671875 8.265625 
Q 6.984375 17.96875 6.984375 36.375 
Q 6.984375 53.65625 15.1875 63.9375 
Q 23.390625 74.21875 37.203125 74.21875 
Q 40.921875 74.21875 44.703125 73.484375 
Q 48.484375 72.75 52.59375 71.296875 
z
" id="DejaVuSans-54"/>
      </defs>
      <g transform="translate(515.21875 527.238438)scale(0.1 -0.1)">
       <use xlink:href="#DejaVuSans-54"/>
      </g>
     </g>
    </g>
    <g id="text_8">
     <!-- x -->
     <defs>
      <path d="M 54.890625 54.6875 
L 35.109375 28.078125 
L 55.90625 0 
L 45.3125 0 
L 29.390625 21.484375 
L 13.484375 0 
L 2.875 0 
L 24.125 28.609375 
L 4.6875 54.6875 
L 15.28125 54.6875 
L 29.78125 35.203125 
L 44.28125 54.6875 
z
" id="DejaVuSans-120"/>
     </defs>
     <g transform="translate(292.240625 540.916563)scale(0.1 -0.1)">
      <use xlink:href="#DejaVuSans-120"/>
     </g>
    </g>
   </g>
   <g id="matplotlib.axis_2">
    <g id="ytick_1">
     <g id="line2d_8">
      <defs>
       <path d="M 0 0 
L -3.5 0 
" id="m00068db4b6" style="stroke:#000000;stroke-width:0.8;"/>
      </defs>
      <g>
       <use style="stroke:#000000;stroke-width:0.8;" x="72" xlink:href="#m00068db4b6" y="501.822439"/>
      </g>
     </g>
     <g id="text_9">
      <!-- 0 -->
      <g transform="translate(58.6375 505.621658)scale(0.1 -0.1)">
       <use xlink:href="#DejaVuSans-48"/>
      </g>
     </g>
    </g>
    <g id="ytick_2">
     <g id="line2d_9">
      <g>
       <use style="stroke:#000000;stroke-width:0.8;" x="72" xlink:href="#m00068db4b6" y="447.734634"/>
      </g>
     </g>
     <g id="text_10">
      <!-- 1000 -->
      <g transform="translate(39.55 451.533853)scale(0.1 -0.1)">
       <use xlink:href="#DejaVuSans-49"/>
       <use x="63.623047" xlink:href="#DejaVuSans-48"/>
       <use x="127.246094" xlink:href="#DejaVuSans-48"/>
       <use x="190.869141" xlink:href="#DejaVuSans-48"/>
      </g>
     </g>
    </g>
    <g id="ytick_3">
     <g id="line2d_10">
      <g>
       <use style="stroke:#000000;stroke-width:0.8;" x="72" xlink:href="#m00068db4b6" y="393.646829"/>
      </g>
     </g>
     <g id="text_11">
      <!-- 2000 -->
      <g transform="translate(39.55 397.446048)scale(0.1 -0.1)">
       <use xlink:href="#DejaVuSans-50"/>
       <use x="63.623047" xlink:href="#DejaVuSans-48"/>
       <use x="127.246094" xlink:href="#DejaVuSans-48"/>
       <use x="190.869141" xlink:href="#DejaVuSans-48"/>
      </g>
     </g>
    </g>
    <g id="ytick_4">
     <g id="line2d_11">
      <g>
       <use style="stroke:#000000;stroke-width:0.8;" x="72" xlink:href="#m00068db4b6" y="339.559024"/>
      </g>
     </g>
     <g id="text_12">
      <!-- 3000 -->
      <g transform="translate(39.55 343.358243)scale(0.1 -0.1)">
       <use xlink:href="#DejaVuSans-51"/>
       <use x="63.623047" xlink:href="#DejaVuSans-48"/>
       <use x="127.246094" xlink:href="#DejaVuSans-48"/>
       <use x="190.869141" xlink:href="#DejaVuSans-48"/>
      </g>
     </g>
    </g>
    <g id="ytick_5">
     <g id="line2d_12">
      <g>
       <use style="stroke:#000000;stroke-width:0.8;" x="72" xlink:href="#m00068db4b6" y="285.47122"/>
      </g>
     </g>
     <g id="text_13">
      <!-- 4000 -->
      <g transform="translate(39.55 289.270438)scale(0.1 -0.1)">
       <use xlink:href="#DejaVuSans-52"/>
       <use x="63.623047" xlink:href="#DejaVuSans-48"/>
       <use x="127.246094" xlink:href="#DejaVuSans-48"/>
       <use x="190.869141" xlink:href="#DejaVuSans-48"/>
      </g>
     </g>
    </g>
    <g id="ytick_6">
     <g id="line2d_13">
      <g>
       <use style="stroke:#000000;stroke-width:0.8;" x="72" xlink:href="#m00068db4b6" y="231.383415"/>
      </g>
     </g>
     <g id="text_14">
      <!-- 5000 -->
      <g transform="translate(39.55 235.182633)scale(0.1 -0.1)">
       <use xlink:href="#DejaVuSans-53"/>
       <use x="63.623047" xlink:href="#DejaVuSans-48"/>
       <use x="127.246094" xlink:href="#DejaVuSans-48"/>
       <use x="190.869141" xlink:href="#DejaVuSans-48"/>
      </g>
     </g>
    </g>
    <g id="ytick_7">
     <g id="line2d_14">
      <g>
       <use style="stroke:#000000;stroke-width:0.8;" x="72" xlink:href="#m00068db4b6" y="177.29561"/>
      </g>
     </g>
     <g id="text_15">
      <!-- 6000 -->
      <g transform="translate(39.55 181.094829)scale(0.1 -0.1)">
       <use xlink:href="#DejaVuSans-54"/>
       <use x="63.623047" xlink:href="#DejaVuSans-48"/>
       <use x="127.246094" xlink:href="#DejaVuSans-48"/>
       <use x="190.869141" xlink:href="#DejaVuSans-48"/>
      </g>
     </g>
    </g>
    <g id="ytick_8">
     <g id="line2d_15">
      <g>
       <use style="stroke:#000000;stroke-width:0.8;" x="72" xlink:href="#m00068db4b6" y="123.207805"/>
      </g>
     </g>
     <g id="text_16">
      <!-- 7000 -->
      <defs>
       <path d="M 8.203125 72.90625 
L 55.078125 72.90625 
L 55.078125 68.703125 
L 28.609375 0 
L 18.3125 0 
L 43.21875 64.59375 
L 8.203125 64.59375 
z
" id="DejaVuSans-55"/>
      </defs>
      <g transform="translate(39.55 127.007024)scale(0.1 -0.1)">
       <use xlink:href="#DejaVuSans-55"/>
       <use x="63.623047" xlink:href="#DejaVuSans-48"/>
       <use x="127.246094" xlink:href="#DejaVuSans-48"/>
       <use x="190.869141" xlink:href="#DejaVuSans-48"/>
      </g>
     </g>
    </g>
    <g id="ytick_9">
     <g id="line2d_16">
      <g>
       <use style="stroke:#000000;stroke-width:0.8;" x="72" xlink:href="#m00068db4b6" y="69.12"/>
      </g>
     </g>
     <g id="text_17">
      <!-- 8000 -->
      <defs>
       <path d="M 31.78125 34.625 
Q 24.75 34.625 20.71875 30.859375 
Q 16.703125 27.09375 16.703125 20.515625 
Q 16.703125 13.921875 20.71875 10.15625 
Q 24.75 6.390625 31.78125 6.390625 
Q 38.8125 6.390625 42.859375 10.171875 
Q 46.921875 13.96875 46.921875 20.515625 
Q 46.921875 27.09375 42.890625 30.859375 
Q 38.875 34.625 31.78125 34.625 
z
M 21.921875 38.8125 
Q 15.578125 40.375 12.03125 44.71875 
Q 8.5 49.078125 8.5 55.328125 
Q 8.5 64.0625 14.71875 69.140625 
Q 20.953125 74.21875 31.78125 74.21875 
Q 42.671875 74.21875 48.875 69.140625 
Q 55.078125 64.0625 55.078125 55.328125 
Q 55.078125 49.078125 51.53125 44.71875 
Q 48 40.375 41.703125 38.8125 
Q 48.828125 37.15625 52.796875 32.3125 
Q 56.78125 27.484375 56.78125 20.515625 
Q 56.78125 9.90625 50.3125 4.234375 
Q 43.84375 -1.421875 31.78125 -1.421875 
Q 19.734375 -1.421875 13.25 4.234375 
Q 6.78125 9.90625 6.78125 20.515625 
Q 6.78125 27.484375 10.78125 32.3125 
Q 14.796875 37.15625 21.921875 38.8125 
z
M 18.3125 54.390625 
Q 18.3125 48.734375 21.84375 45.5625 
Q 25.390625 42.390625 31.78125 42.390625 
Q 38.140625 42.390625 41.71875 45.5625 
Q 45.3125 48.734375 45.3125 54.390625 
Q 45.3125 60.0625 41.71875 63.234375 
Q 38.140625 66.40625 31.78125 66.40625 
Q 25.390625 66.40625 21.84375 63.234375 
Q 18.3125 60.0625 18.3125 54.390625 
z
" id="DejaVuSans-56"/>
      </defs>
      <g transform="translate(39.55 72.919219)scale(0.1 -0.1)">
       <use xlink:href="#DejaVuSans-56"/>
       <use x="63.623047" xlink:href="#DejaVuSans-48"/>
       <use x="127.246094" xlink:href="#DejaVuSans-48"/>
       <use x="190.869141" xlink:href="#DejaVuSans-48"/>
      </g>
     </g>
    </g>
    <g id="text_18">
     <!-- y -->
     <defs>
      <path d="M 32.171875 -5.078125 
Q 28.375 -14.84375 24.75 -17.8125 
Q 21.140625 -20.796875 15.09375 -20.796875 
L 7.90625 -20.796875 
L 7.90625 -13.28125 
L 13.1875 -13.28125 
Q 16.890625 -13.28125 18.9375 -11.515625 
Q 21 -9.765625 23.484375 -3.21875 
L 25.09375 0.875 
L 2.984375 54.6875 
L 12.5 54.6875 
L 29.59375 11.921875 
L 46.6875 54.6875 
L 56.203125 54.6875 
z
" id="DejaVuSans-121"/>
     </defs>
     <g transform="translate(33.470312 293.839375)rotate(-90)scale(0.1 -0.1)">
      <use xlink:href="#DejaVuSans-121"/>
     </g>
    </g>
   </g>
   <g id="line2d_17">
    <path clip-path="url(#p09c573f0a0)" d="M -1 438.001676 
L 3.727059 441.258437 
L 9.854118 445.272517 
L 15.981176 449.056672 
L 22.108235 452.610902 
L 28.235294 455.935206 
L 34.362353 459.029586 
L 40.489412 461.89404 
L 46.616471 464.528569 
L 52.743529 466.933173 
L 58.870588 469.107851 
L 64.997647 471.052605 
L 71.124706 472.767433 
L 77.251765 474.252336 
L 83.378824 475.507314 
L 89.505882 476.532366 
L 95.632941 477.327494 
L 101.76 477.892696 
L 107.887059 478.227973 
L 114.014118 478.333325 
L 120.141176 478.208751 
L 126.268235 477.854253 
L 132.395294 477.269829 
L 138.522353 476.45548 
L 144.649412 475.411206 
L 150.776471 474.137007 
L 156.903529 472.632882 
L 163.030588 470.898832 
L 169.157647 468.934857 
L 175.284706 466.740957 
L 181.411765 464.317132 
L 187.538824 461.663381 
L 193.665882 458.779705 
L 199.792941 455.666104 
L 205.92 452.322578 
L 212.047059 448.749127 
L 218.174118 444.94575 
L 224.301176 440.912448 
L 230.428235 436.649221 
L 236.555294 432.156069 
L 242.682353 427.432992 
L 248.809412 422.479989 
L 254.936471 417.297061 
L 261.063529 411.884208 
L 267.190588 406.24143 
L 273.317647 400.368727 
L 281.487059 392.180794 
L 289.656471 383.584106 
L 297.825882 374.578661 
L 305.995294 365.164461 
L 314.164706 355.341505 
L 322.334118 345.109793 
L 330.503529 334.469325 
L 338.672941 323.420101 
L 346.842353 311.962121 
L 355.011765 300.095385 
L 363.181176 287.819893 
L 371.350588 275.135646 
L 379.52 262.042642 
L 387.689412 248.540883 
L 395.858824 234.630367 
L 404.028235 220.311096 
L 412.197647 205.583069 
L 420.367059 190.446286 
L 428.536471 174.900747 
L 436.705882 158.946452 
L 444.875294 142.583401 
L 453.044706 125.811594 
L 463.256471 104.272023 
L 473.468235 82.09377 
L 483.68 59.276837 
L 493.891765 35.821222 
L 504.103529 11.726926 
L 509.389873 -1 
L 509.389873 -1 
" style="fill:none;stroke:#000000;stroke-linecap:square;stroke-width:3;"/>
   </g>
   <g id="line2d_18">
    <path clip-path="url(#p09c573f0a0)" d="M -1 296.517096 
L 3.727059 304.261365 
L 9.854118 313.995005 
L 15.981176 323.391093 
L 22.108235 332.44963 
L 28.235294 341.170616 
L 34.362353 349.554051 
L 40.489412 357.599934 
L 46.616471 365.308266 
L 52.743529 372.679047 
L 58.870588 379.712276 
L 64.997647 386.407954 
L 71.124706 392.766081 
L 77.251765 398.786656 
L 83.378824 404.46968 
L 89.505882 409.815153 
L 95.632941 414.823074 
L 101.76 419.493444 
L 107.887059 423.826263 
L 114.014118 427.82153 
L 120.141176 431.479246 
L 126.268235 434.799411 
L 132.395294 437.782024 
L 138.522353 440.427086 
L 144.649412 442.734597 
L 150.776471 444.704557 
L 156.903529 446.336965 
L 163.030588 447.631822 
L 169.157647 448.589127 
L 173.242353 449.039802 
L 177.327059 449.340455 
L 181.411765 449.491084 
L 185.496471 449.491691 
L 189.581176 449.342275 
L 193.665882 449.042836 
L 197.750588 448.593374 
L 201.835294 447.99389 
L 207.962353 446.81337 
L 214.089412 445.295299 
L 220.216471 443.439677 
L 226.343529 441.246503 
L 232.470588 438.715779 
L 238.597647 435.847502 
L 244.724706 432.641675 
L 250.851765 429.098296 
L 256.978824 425.217366 
L 263.105882 420.998885 
L 269.232941 416.442852 
L 275.36 411.549268 
L 281.487059 406.318132 
L 287.614118 400.749445 
L 293.741176 394.843207 
L 299.868235 388.599418 
L 305.995294 382.018077 
L 312.122353 375.099185 
L 318.249412 367.842742 
L 324.376471 360.248747 
L 330.503529 352.317201 
L 336.630588 344.048104 
L 342.757647 335.441455 
L 348.884706 326.497255 
L 355.011765 317.215504 
L 361.138824 307.596201 
L 367.265882 297.639347 
L 373.392941 287.344942 
L 379.52 276.712986 
L 387.689412 262.011964 
L 395.858824 246.71085 
L 404.028235 230.809646 
L 412.197647 214.30835 
L 420.367059 197.206963 
L 428.536471 179.505485 
L 436.705882 161.203916 
L 444.875294 142.302255 
L 453.044706 122.800503 
L 461.214118 102.69866 
L 469.383529 81.996726 
L 477.552941 60.6947 
L 485.722353 38.792584 
L 493.891765 16.290376 
L 500.025796 -1 
L 500.025796 -1 
" style="fill:none;stroke:#000000;stroke-dasharray:19.2,4.8,3,4.8;stroke-dashoffset:0;stroke-width:3;"/>
   </g>
   <g id="line2d_19">
    <path clip-path="url(#p09c573f0a0)" d="M -1 7.182578 
L 5.769412 31.309075 
L 13.938824 59.510752 
L 22.108235 86.72106 
L 30.277647 112.939997 
L 36.404706 131.953613 
L 42.531765 150.409584 
L 48.658824 168.307909 
L 54.785882 185.648589 
L 60.912941 202.431623 
L 67.04 218.657011 
L 73.167059 234.324753 
L 79.294118 249.43485 
L 85.421176 263.987302 
L 91.548235 277.982107 
L 97.675294 291.419267 
L 103.802353 304.298782 
L 109.929412 316.62065 
L 116.056471 328.384874 
L 122.183529 339.591451 
L 128.310588 350.240383 
L 134.437647 360.331669 
L 140.564706 369.865309 
L 146.691765 378.841304 
L 152.818824 387.259654 
L 156.903529 392.562083 
L 160.988235 397.61667 
L 165.072941 402.423415 
L 169.157647 406.982317 
L 173.242353 411.293377 
L 177.327059 415.356594 
L 181.411765 419.171969 
L 185.496471 422.739501 
L 189.581176 426.05919 
L 193.665882 429.131037 
L 197.750588 431.955042 
L 201.835294 434.531204 
L 205.92 436.859524 
L 210.004706 438.940001 
L 214.089412 440.772635 
L 218.174118 442.357427 
L 222.258824 443.694377 
L 226.343529 444.783484 
L 230.428235 445.624749 
L 234.512941 446.218171 
L 238.597647 446.56375 
L 242.682353 446.661487 
L 246.767059 446.511382 
L 250.851765 446.113434 
L 254.936471 445.467643 
L 259.021176 444.57401 
L 263.105882 443.432535 
L 267.190588 442.043217 
L 271.275294 440.406056 
L 275.36 438.521053 
L 279.444706 436.388207 
L 283.529412 434.007519 
L 287.614118 431.378989 
L 291.698824 428.502616 
L 295.783529 425.3784 
L 299.868235 422.006342 
L 303.952941 418.386441 
L 308.037647 414.518698 
L 312.122353 410.403113 
L 316.207059 406.039685 
L 320.291765 401.428414 
L 324.376471 396.569301 
L 328.461176 391.462345 
L 332.545882 386.107547 
L 338.672941 377.610645 
L 344.8 368.556098 
L 350.927059 358.943904 
L 357.054118 348.774065 
L 363.181176 338.046581 
L 369.308235 326.761451 
L 375.435294 314.918675 
L 381.562353 302.518254 
L 387.689412 289.560187 
L 393.816471 276.044474 
L 399.943529 261.971115 
L 406.070588 247.340111 
L 412.197647 232.151462 
L 418.324706 216.405167 
L 424.451765 200.101226 
L 430.578824 183.239639 
L 436.705882 165.820407 
L 442.832941 147.843529 
L 448.96 129.309005 
L 455.087059 110.216836 
L 461.214118 90.567021 
L 469.383529 63.49982 
L 477.552941 35.441248 
L 485.722353 6.391306 
L 487.757525 -1 
L 487.757525 -1 
" style="fill:none;stroke:#000000;stroke-dasharray:3,4.95;stroke-dashoffset:0;stroke-width:3;"/>
   </g>
   <g id="line2d_20">
    <path clip-path="url(#p09c573f0a0)" d="M 47.943697 -1 
L 52.743529 19.306386 
L 58.870588 44.555041 
L 64.997647 69.062638 
L 71.124706 92.829177 
L 77.251765 115.854659 
L 83.378824 138.139083 
L 89.505882 159.682449 
L 95.632941 180.484758 
L 101.76 200.54601 
L 107.887059 219.866204 
L 114.014118 238.44534 
L 120.141176 256.283419 
L 126.268235 273.38044 
L 132.395294 289.736403 
L 138.522353 305.351309 
L 144.649412 320.225158 
L 150.776471 334.357949 
L 156.903529 347.749682 
L 163.030588 360.400357 
L 167.115294 368.422443 
L 171.2 376.115169 
L 175.284706 383.478536 
L 179.369412 390.512544 
L 183.454118 397.217194 
L 187.538824 403.592484 
L 191.623529 409.638416 
L 195.708235 415.354989 
L 199.792941 420.742202 
L 203.877647 425.800057 
L 207.962353 430.528553 
L 212.047059 434.92769 
L 216.131765 438.997468 
L 220.216471 442.737887 
L 224.301176 446.148947 
L 228.385882 449.230649 
L 232.470588 451.982991 
L 236.555294 454.405974 
L 240.64 456.499599 
L 244.724706 458.263865 
L 248.809412 459.698771 
L 252.894118 460.804319 
L 256.978824 461.580508 
L 261.063529 462.027338 
L 265.148235 462.144809 
L 269.232941 461.932921 
L 273.317647 461.391674 
L 277.402353 460.521068 
L 281.487059 459.321103 
L 285.571765 457.79178 
L 289.656471 455.933097 
L 293.741176 453.745056 
L 297.825882 451.227655 
L 301.910588 448.380896 
L 305.995294 445.204778 
L 310.08 441.699301 
L 314.164706 437.864464 
L 318.249412 433.700269 
L 322.334118 429.206715 
L 326.418824 424.383803 
L 330.503529 419.231531 
L 334.588235 413.7499 
L 338.672941 407.93891 
L 342.757647 401.798562 
L 346.842353 395.328854 
L 350.927059 388.529788 
L 355.011765 381.401363 
L 359.096471 373.943578 
L 363.181176 366.156435 
L 367.265882 358.039933 
L 373.392941 345.247632 
L 379.52 331.714273 
L 385.647059 317.439857 
L 391.774118 302.424383 
L 397.901176 286.667852 
L 404.028235 270.170263 
L 410.155294 252.931616 
L 416.282353 234.951912 
L 422.409412 216.23115 
L 428.536471 196.769331 
L 434.663529 176.566454 
L 440.790588 155.62252 
L 446.917647 133.937528 
L 453.044706 111.511478 
L 459.171765 88.344371 
L 465.298824 64.436206 
L 471.425882 39.786984 
L 477.552941 14.396704 
L 481.182339 -1 
L 481.182339 -1 
" style="fill:none;stroke:#000000;stroke-dasharray:11.1,4.8;stroke-dashoffset:0;stroke-width:3;"/>
   </g>
   <g id="patch_3">
    <path d="M 72 512.64 
L 72 69.12 
" style="fill:none;stroke:#000000;stroke-linecap:square;stroke-linejoin:miter;stroke-width:0.8;"/>
   </g>
   <g id="patch_4">
    <path d="M 518.4 512.64 
L 518.4 69.12 
" style="fill:none;stroke:#000000;stroke-linecap:square;stroke-linejoin:miter;stroke-width:0.8;"/>
   </g>
   <g id="patch_5">
    <path d="M 72 512.64 
L 518.4 512.64 
" style="fill:none;stroke:#000000;stroke-linecap:square;stroke-linejoin:miter;stroke-width:0.8;"/>
   </g>
   <g id="patch_6">
    <path d="M 72 69.12 
L 518.4 69.12 
" style="fill:none;stroke:#000000;stroke-linecap:square;stroke-linejoin:miter;stroke-width:0.8;"/>
   </g>
   <g id="patch_7">
    <path d="M 218.8 487.269955 
Q 218.8 471.489383 218.8 455.708811 
L 214.8 455.708811 
Q 217.8 449.709508 220.8 443.710206 
Q 223.8 449.709508 226.8 455.708811 
L 222.8 455.708811 
Q 222.8 471.489383 222.8 487.269955 
L 218.8 487.269955 
z
" style="stroke:#000000;stroke-linecap:round;"/>
   </g>
   <g id="text_19">
    <!-- (2.0, 1083.0) -->
    <defs>
     <path d="M 31 75.875 
Q 24.46875 64.65625 21.28125 53.65625 
Q 18.109375 42.671875 18.109375 31.390625 
Q 18.109375 20.125 21.3125 9.0625 
Q 24.515625 -2 31 -13.1875 
L 23.1875 -13.1875 
Q 15.875 -1.703125 12.234375 9.375 
Q 8.59375 20.453125 8.59375 31.390625 
Q 8.59375 42.28125 12.203125 53.3125 
Q 15.828125 64.359375 23.1875 75.875 
z
" id="DejaVuSans-40"/>
     <path d="M 10.6875 12.40625 
L 21 12.40625 
L 21 0 
L 10.6875 0 
z
" id="DejaVuSans-46"/>
     <path d="M 11.71875 12.40625 
L 22.015625 12.40625 
L 22.015625 4 
L 14.015625 -11.625 
L 7.71875 -11.625 
L 11.71875 4 
z
" id="DejaVuSans-44"/>
     <path id="DejaVuSans-32"/>
     <path d="M 8.015625 75.875 
L 15.828125 75.875 
Q 23.140625 64.359375 26.78125 53.3125 
Q 30.421875 42.28125 30.421875 31.390625 
Q 30.421875 20.453125 26.78125 9.375 
Q 23.140625 -1.703125 15.828125 -13.1875 
L 8.015625 -13.1875 
Q 14.5 -2 17.703125 9.0625 
Q 20.90625 20.125 20.90625 31.390625 
Q 20.90625 42.671875 17.703125 53.65625 
Q 14.5 64.65625 8.015625 75.875 
z
" id="DejaVuSans-41"/>
    </defs>
    <g transform="translate(220.8 497.333151)scale(0.1 -0.1)">
     <use xlink:href="#DejaVuSans-40"/>
     <use x="39.013672" xlink:href="#DejaVuSans-50"/>
     <use x="102.636719" xlink:href="#DejaVuSans-46"/>
     <use x="134.423828" xlink:href="#DejaVuSans-48"/>
     <use x="198.046875" xlink:href="#DejaVuSans-44"/>
     <use x="229.833984" xlink:href="#DejaVuSans-32"/>
     <use x="261.621094" xlink:href="#DejaVuSans-49"/>
     <use x="325.244141" xlink:href="#DejaVuSans-48"/>
     <use x="388.867188" xlink:href="#DejaVuSans-56"/>
     <use x="452.490234" xlink:href="#DejaVuSans-51"/>
     <use x="516.113281" xlink:href="#DejaVuSans-46"/>
     <use x="547.900391" xlink:href="#DejaVuSans-48"/>
     <use x="611.523438" xlink:href="#DejaVuSans-41"/>
    </g>
   </g>
   <g id="patch_8">
    <path d="M 400.860588 118.949939 
Q 417.381518 127.810513 433.902449 136.671088 
L 435.793005 133.146063 
Q 439.663755 138.626272 443.534506 144.106481 
Q 436.827921 143.913809 430.121337 143.721137 
L 432.011893 140.196112 
Q 415.490963 131.335538 398.970032 122.474963 
L 400.860588 118.949939 
z
" style="stroke:#000000;stroke-linecap:round;"/>
   </g>
   <g id="text_20">
    <!-- (5.0, 6609.0) -->
    <defs>
     <path d="M 10.984375 1.515625 
L 10.984375 10.5 
Q 14.703125 8.734375 18.5 7.8125 
Q 22.3125 6.890625 25.984375 6.890625 
Q 35.75 6.890625 40.890625 13.453125 
Q 46.046875 20.015625 46.78125 33.40625 
Q 43.953125 29.203125 39.59375 26.953125 
Q 35.25 24.703125 29.984375 24.703125 
Q 19.046875 24.703125 12.671875 31.3125 
Q 6.296875 37.9375 6.296875 49.421875 
Q 6.296875 60.640625 12.9375 67.421875 
Q 19.578125 74.21875 30.609375 74.21875 
Q 43.265625 74.21875 49.921875 64.515625 
Q 56.59375 54.828125 56.59375 36.375 
Q 56.59375 19.140625 48.40625 8.859375 
Q 40.234375 -1.421875 26.421875 -1.421875 
Q 22.703125 -1.421875 18.890625 -0.6875 
Q 15.09375 0.046875 10.984375 1.515625 
z
M 30.609375 32.421875 
Q 37.25 32.421875 41.125 36.953125 
Q 45.015625 41.5 45.015625 49.421875 
Q 45.015625 57.28125 41.125 61.84375 
Q 37.25 66.40625 30.609375 66.40625 
Q 23.96875 66.40625 20.09375 61.84375 
Q 16.21875 57.28125 16.21875 49.421875 
Q 16.21875 41.5 20.09375 36.953125 
Q 23.96875 32.421875 30.609375 32.421875 
z
" id="DejaVuSans-57"/>
    </defs>
    <g transform="translate(332.4 117.312234)scale(0.1 -0.1)">
     <use xlink:href="#DejaVuSans-40"/>
     <use x="39.013672" xlink:href="#DejaVuSans-53"/>
     <use x="102.636719" xlink:href="#DejaVuSans-46"/>
     <use x="134.423828" xlink:href="#DejaVuSans-48"/>
     <use x="198.046875" xlink:href="#DejaVuSans-44"/>
     <use x="229.833984" xlink:href="#DejaVuSans-32"/>
     <use x="261.621094" xlink:href="#DejaVuSans-54"/>
     <use x="325.244141" xlink:href="#DejaVuSans-54"/>
     <use x="388.867188" xlink:href="#DejaVuSans-48"/>
     <use x="452.490234" xlink:href="#DejaVuSans-57"/>
     <use x="516.113281" xlink:href="#DejaVuSans-46"/>
     <use x="547.900391" xlink:href="#DejaVuSans-48"/>
     <use x="611.523438" xlink:href="#DejaVuSans-41"/>
    </g>
   </g>
   <g id="PathCollection_1">
    <defs>
     <path d="M 0 3 
C 0.795609 3 1.55874 2.683901 2.12132 2.12132 
C 2.683901 1.55874 3 0.795609 3 0 
C 3 -0.795609 2.683901 -1.55874 2.12132 -2.12132 
C 1.55874 -2.683901 0.795609 -3 0 -3 
C -0.795609 -3 -1.55874 -2.683901 -2.12132 -2.12132 
C -2.683901 -1.55874 -3 -0.795609 -3 0 
C -3 0.795609 -2.683901 1.55874 -2.12132 2.12132 
C -1.55874 2.683901 -0.795609 3 0 3 
z
" id="mdba37e0fb0" style="stroke:#1f77b4;"/>
    </defs>
    <g clip-path="url(#p09c573f0a0)">
     <use style="fill:#1f77b4;stroke:#1f77b4;" x="220.8" xlink:href="#mdba37e0fb0" y="443.245346"/>
     <use style="fill:#1f77b4;stroke:#1f77b4;" x="444" xlink:href="#mdba37e0fb0" y="144.356137"/>
    </g>
   </g>
  </g>
 </g>
 <defs>
  <clipPath id="p09c573f0a0">
   <rect height="443.52" width="446.4" x="72" y="69.12"/>
  </clipPath>
 </defs>
</svg>
