<?xml version="1.0" encoding="utf-8" ?>
<svg baseProfile="full" fill="white" fill-opacity="0" height="100%" version="1.1" width="100%" xmlns="http://www.w3.org/2000/svg" xmlns:ev="http://www.w3.org/2001/xml-events" xmlns:xlink="http://www.w3.org/1999/xlink"><defs /><circle cx="400" cy="400" fill="white" fill-opacity="0" id="boundary_circle" r="250" stroke="black" stroke-width="1" /><g id="rotated_triangle" stroke="red" stroke-width="4"><line x1="400" x2="512.0719340210068" y1="400" y2="335.2952387243698" /><path d="m 512.0719340210068 335.2952387243698 A 249.99999999999974 249.99999999999974 0 0,0 503.55339059327383 400" /><line x1="400" x2="503.55339059327383" y1="400" y2="400" /><line x1="400.0" x2="512.0719340210068" y1="400.0" y2="335.2952387243698" /><path d="m 512.0719340210068 335.2952387243698 A 249.9999999999998 249.9999999999998 0 0,1 451.77669529663694 310.32013309821235" /><line x1="400.0" x2="451.77669529663694" y1="400.0" y2="310.32013309821235" /><path d="m 488.38834764831853 246.90689107605138 A 176.776695296637 176.776695296637 0 0,0 512.0719340210068 335.2952387243698" /><path d="m 512.0719340210068 335.2952387243698 A 250.0000000000001 250.0000000000001 0 0,1 451.7766952966369 310.3201330982124" /><line x1="488.38834764831853" x2="451.7766952966369" y1="246.90689107605138" y2="310.3201330982124" /><path d="m 488.38834764831853 246.90689107605138 A 176.77669529663677 176.77669529663677 0 0,0 512.0719340210067 335.2952387243699" /><path d="m 512.0719340210067 335.2952387243699 A 250.0000000000007 250.0000000000007 0 0,1 530.6019374818708 286.895404357233" /><path d="m 488.38834764831853 246.90689107605138 A 102.06207261596595 102.06207261596595 0 0,0 530.6019374818708 286.895404357233" /><line x1="576.776695296637" x2="512.0719340210067" y1="297.9379273840345" y2="335.2952387243699" /><path d="m 512.0719340210067 335.2952387243699 A 250.00000000000117 250.00000000000117 0 0,1 530.6019374818708 286.895404357233" /><path d="m 576.776695296637 297.9379273840345 A 102.06207261596518 102.06207261596518 0 0,1 530.6019374818708 286.895404357233" /><line x1="576.776695296637" x2="512.0719340210067" y1="297.9379273840345" y2="335.2952387243699" /><path d="m 512.0719340210067 335.2952387243699 A 249.99999999999986 249.99999999999986 0 0,0 563.2524218523383 343.4477021786166" /><path d="m 576.776695296637 297.9379273840345 A 102.06207261596609 102.06207261596609 0 0,0 563.2524218523383 343.4477021786166" /><path d="m 576.7766952966367 400.0000000000001 A 176.77669529663703 176.77669529663703 0 0,1 512.0719340210067 335.2952387243698" /><path d="m 512.0719340210067 335.2952387243698 A 249.9999999999994 249.9999999999994 0 0,0 563.2524218523383 343.44770217861657" /><path d="m 576.7766952966367 400.0000000000001 A 102.06207261596612 102.06207261596612 0 0,1 563.2524218523383 343.44770217861657" /><path d="m 576.7766952966367 400.0000000000001 A 176.7766952966371 176.7766952966371 0 0,1 512.0719340210067 335.2952387243698" /><path d="m 512.0719340210067 335.2952387243698 A 250.00000000000034 250.00000000000034 0 0,0 503.55339059327366 400.0" /><line x1="576.7766952966367" x2="503.55339059327366" y1="400.0000000000001" y2="400.0" /><line x1="400" x2="512.0719340210068" y1="400" y2="335.2952387243698" /><path d="m 512.0719340210068 335.2952387243698 A 249.99999999999974 249.99999999999974 0 0,0 503.55339059327383 400" /><line x1="400" x2="503.55339059327383" y1="400" y2="400" /><line x1="400.0" x2="512.0719340210068" y1="400.0" y2="335.2952387243698" /><path d="m 512.0719340210068 335.2952387243698 A 249.9999999999998 249.9999999999998 0 0,1 451.77669529663694 310.32013309821235" /><line x1="400.0" x2="451.77669529663694" y1="400.0" y2="310.32013309821235" /><line x1="400.0" x2="400.00000000000006" y1="400.0" y2="270.59047744873953" /><path d="m 400.00000000000006 270.59047744873953 A 249.99999999999986 249.99999999999986 0 0,0 451.77669529663694 310.32013309821235" /><line x1="400.0" x2="451.77669529663694" y1="400.0" y2="310.32013309821235" /><line x1="400.0" x2="399.99999999999994" y1="400.0" y2="270.59047744873953" /><path d="m 399.99999999999994 270.59047744873953 A 249.99999999999986 249.99999999999986 0 0,1 348.22330470336306 310.32013309821235" /><line x1="400.0" x2="348.22330470336306" y1="400.0" y2="310.32013309821235" /><line x1="400.0" x2="287.92806597899323" y1="400.0" y2="335.29523872436977" /><path d="m 287.92806597899323 335.29523872436977 A 249.9999999999999 249.9999999999999 0 0,0 348.22330470336306 310.32013309821235" /><line x1="400.0" x2="348.22330470336306" y1="400.0" y2="310.32013309821235" /><line x1="400.0" x2="287.92806597899323" y1="400.0" y2="335.29523872436977" /><path d="m 287.92806597899323 335.29523872436977 A 249.99999999999983 249.99999999999983 0 0,1 296.44660940672617 400.0" /><line x1="400.0" x2="296.44660940672617" y1="400.0" y2="400.0" /><line x1="400.0" x2="287.9280659789932" y1="400.0" y2="464.7047612756302" /><path d="m 287.9280659789932 464.7047612756302 A 249.99999999999977 249.99999999999977 0 0,0 296.44660940672617 400.0" /><line x1="400.0" x2="296.44660940672617" y1="400.0" y2="400.0" /><line x1="400.0" x2="287.9280659789932" y1="400.0" y2="464.7047612756302" /><path d="m 287.9280659789932 464.7047612756302 A 249.99999999999977 249.99999999999977 0 0,1 348.22330470336306 489.6798669017876" /><line x1="400.0" x2="348.22330470336306" y1="400.0" y2="489.6798669017876" /><line x1="400.0" x2="399.9999999999999" y1="400.0" y2="529.4095225512605" /><path d="m 399.9999999999999 529.4095225512605 A 249.99999999999986 249.99999999999986 0 0,0 348.22330470336306 489.6798669017876" /><line x1="400.0" x2="348.22330470336306" y1="400.0" y2="489.6798669017876" /><line x1="400.0" x2="400.0000000000001" y1="400.0" y2="529.4095225512605" /><path d="m 400.0000000000001 529.4095225512605 A 249.99999999999986 249.99999999999986 0 0,1 451.77669529663694 489.6798669017876" /><line x1="400.0" x2="451.77669529663694" y1="400.0" y2="489.6798669017876" /><line x1="400.0" x2="512.0719340210069" y1="400.0" y2="464.7047612756302" /><path d="m 512.0719340210069 464.7047612756302 A 249.99999999999983 249.99999999999983 0 0,0 451.776695296637 489.6798669017876" /><line x1="400.0" x2="451.776695296637" y1="400.0" y2="489.6798669017876" /><line x1="400.0" x2="512.0719340210069" y1="400.0" y2="464.7047612756302" /><path d="m 512.0719340210069 464.7047612756302 A 249.99999999999963 249.99999999999963 0 0,1 503.5533905932739 400.0" /><line x1="400.0" x2="503.5533905932739" y1="400.0" y2="400.0" /></g></svg>